<?xml version="1.0" standalone="no"?>
<!DOCTYPE svg PUBLIC "-//W3C//DTD SVG 20010904//EN"
 "http://www.w3.org/TR/2001/REC-SVG-20010904/DTD/svg10.dtd">
<svg version="1.0" xmlns="http://www.w3.org/2000/svg"
 width="200.000000pt" height="200.000000pt" viewBox="0 0 200.000000 200.000000"
 preserveAspectRatio="xMidYMid meet">

<g transform="translate(0.000000,200.000000) scale(0.100000,-0.100000)"
fill="#000000" stroke="none">
<path d="M1441 1151 c-12 -16 -21 -34 -21 -40 0 -6 -4 -11 -10 -11 -5 0 -10
-4 -10 -10 0 -5 18 -10 41 -10 33 0 40 3 35 16 -3 8 -2 13 3 9 5 -3 23 12 39
33 l30 38 -24 2 c-18 1 -23 -2 -18 -11 5 -9 4 -9 -7 1 -20 19 -36 15 -58 -17z
m34 9 c-3 -5 -12 -10 -18 -10 -7 0 -6 4 3 10 19 12 23 12 15 0z"/>
<path d="M174 1070 c-108 -33 -146 -207 -63 -290 74 -73 219 -57 264 30 l16
30 -47 0 c-30 0 -51 -5 -58 -15 -6 -8 -25 -18 -42 -21 -37 -7 -74 22 -74 56 0
19 7 20 109 20 61 0 112 3 115 8 8 14 -12 94 -31 120 -44 59 -119 83 -189 62z
m115 -92 c9 -15 13 -29 11 -32 -3 -2 -33 -6 -68 -8 -56 -3 -62 -2 -62 16 0 58
90 77 119 24z"/>
<path d="M1703 1070 c-96 -22 -132 -103 -72 -159 18 -17 41 -25 144 -50 23 -5
30 -12 30 -31 0 -21 -6 -26 -32 -28 -22 -2 -38 3 -52 17 -27 27 -121 31 -121
5 0 -70 129 -115 242 -84 48 14 88 61 88 105 0 41 -42 80 -103 95 -23 6 -55
14 -72 18 -21 5 -30 14 -30 27 0 26 56 33 75 11 14 -18 120 -23 120 -7 0 5
-11 23 -25 39 -36 43 -117 60 -192 42z"/>
<path d="M437 1033 c-20 -33 -23 -50 -21 -128 2 -73 6 -98 24 -128 21 -35 24
-37 76 -37 30 0 54 2 54 5 0 3 -22 39 -50 80 -27 41 -50 79 -50 86 0 6 23 42
50 80 28 38 50 71 50 74 0 3 -25 5 -55 5 -53 0 -56 -2 -78 -37z"/>
<path d="M610 1046 c0 -19 5 -26 20 -26 11 0 20 -3 20 -6 0 -3 -9 -17 -20 -31
-17 -22 -20 -41 -20 -129 l0 -104 50 0 51 0 -3 158 -3 157 -47 3 c-46 3 -48 2
-48 -22z"/>
<path d="M750 905 l0 -165 50 0 50 0 0 113 c0 126 9 147 64 147 37 0 46 -30
46 -156 l0 -104 51 0 52 0 -8 53 c-7 47 -9 143 -5 206 3 35 -32 64 -82 67 -44
3 -98 -12 -98 -27 0 -17 -18 -9 -23 11 -4 16 -14 20 -51 20 l-46 0 0 -165z"/>
<path d="M1165 1056 c-17 -7 -43 -28 -58 -45 -72 -86 -46 -211 56 -260 172
-83 347 116 225 255 -17 19 -44 42 -59 50 -35 17 -124 18 -164 0z m130 -91
c31 -30 33 -82 4 -119 -37 -47 -111 -27 -124 35 -18 83 64 141 120 84z"/>
<path d="M1468 1036 c-21 -30 -23 -45 -22 -129 1 -79 5 -102 24 -131 21 -35
24 -36 81 -36 l60 0 -55 80 c-31 44 -56 85 -56 91 0 6 23 42 50 80 28 38 50
71 50 74 0 3 -25 5 -55 5 -51 0 -56 -2 -77 -34z"/>
</g>
</svg>
